<svg width="38" height="43" viewBox="0 0 38 43" fill="none" xmlns="http://www.w3.org/2000/svg">
<path d="M0.755859 1.64754C0.755859 1.2758 0.885802 0.919292 1.1171 0.656434C1.3484 0.393575 1.66211 0.245903 1.98922 0.245903H5.68929C5.9644 0.245989 6.23159 0.350607 6.44837 0.54312C6.66515 0.735632 6.81907 1.00499 6.88564 1.30835L7.88466 5.85246H36.5232C36.7043 5.85265 36.8831 5.89816 37.047 5.98576C37.2109 6.07336 37.3558 6.20089 37.4714 6.3593C37.587 6.51772 37.6705 6.70312 37.716 6.90234C37.7614 7.10156 37.7677 7.30971 37.7344 7.512L34.0343 29.9382C33.9814 30.2594 33.8314 30.5495 33.6102 30.7584C33.3891 30.9672 33.1107 31.0817 32.8231 31.082H10.6227C10.3352 31.0817 10.0568 30.9672 9.83561 30.7584C9.61446 30.5495 9.46447 30.2594 9.41156 29.9382L5.71395 7.55405L4.72727 3.04918H1.98922C1.66211 3.04918 1.3484 2.90151 1.1171 2.63865C0.885802 2.37579 0.755859 2.01928 0.755859 1.64754ZM13.0894 31.082C11.781 31.082 10.5262 31.6727 9.60097 32.7241C8.67577 33.7755 8.156 35.2016 8.156 36.6885C8.156 38.1755 8.67577 39.6015 9.60097 40.653C10.5262 41.7044 11.781 42.2951 13.0894 42.2951C14.3979 42.2951 15.6527 41.7044 16.5779 40.653C17.5031 39.6015 18.0229 38.1755 18.0229 36.6885C18.0229 35.2016 17.5031 33.7755 16.5779 32.7241C15.6527 31.6727 14.3979 31.082 13.0894 31.082ZM30.3564 31.082C29.048 31.082 27.7932 31.6727 26.868 32.7241C25.9428 33.7755 25.423 35.2016 25.423 36.6885C25.423 38.1755 25.9428 39.6015 26.868 40.653C27.7932 41.7044 29.048 42.2951 30.3564 42.2951C31.6649 42.2951 32.9197 41.7044 33.8449 40.653C34.7701 39.6015 35.2899 38.1755 35.2899 36.6885C35.2899 35.2016 34.7701 33.7755 33.8449 32.7241C32.9197 31.6727 31.6649 31.082 30.3564 31.082ZM13.0894 33.8852C13.7436 33.8852 14.3711 34.1806 14.8337 34.7063C15.2963 35.232 15.5561 35.945 15.5561 36.6885C15.5561 37.432 15.2963 38.145 14.8337 38.6707C14.3711 39.1965 13.7436 39.4918 13.0894 39.4918C12.4352 39.4918 11.8078 39.1965 11.3452 38.6707C10.8826 38.145 10.6227 37.432 10.6227 36.6885C10.6227 35.945 10.8826 35.232 11.3452 34.7063C11.8078 34.1806 12.4352 33.8852 13.0894 33.8852ZM30.3564 33.8852C31.0106 33.8852 31.6381 34.1806 32.1007 34.7063C32.5633 35.232 32.8231 35.945 32.8231 36.6885C32.8231 37.432 32.5633 38.145 32.1007 38.6707C31.6381 39.1965 31.0106 39.4918 30.3564 39.4918C29.7022 39.4918 29.0748 39.1965 28.6122 38.6707C28.1496 38.145 27.8897 37.432 27.8897 36.6885C27.8897 35.945 28.1496 35.232 28.6122 34.7063C29.0748 34.1806 29.7022 33.8852 30.3564 33.8852Z" fill="black"/>
</svg>
