<svg width="167" height="129" viewBox="0 0 167 129" fill="none" xmlns="http://www.w3.org/2000/svg">
<path d="M162.403 0.654816H5.30921C1.39437 2.56502 0.809944 4.47518 0.660007 8.69458V100.206C0.411102 105.606 1.46253 107.063 5.30921 107.063H65.2595V124.562H56.9399V128.345H110.528V124.562H101.964V107.063H162.403C165.712 106.44 166.356 104.691 166.319 100.206V8.69458C166.616 4.73012 165.786 2.96005 162.403 0.654816Z" stroke="#DAD7CD"/>
<path d="M71.8663 27.3752L61.8338 41.7995L74.5579 49.3663L82.6329 36.0061M71.8663 27.3752C76.2698 27.3197 77.6273 27.7399 78.7178 29.0305L82.6329 36.0061M71.8663 27.3752H83.367C88.8617 27.6231 92.4412 27.5175 95.357 29.0305C98.0671 30.9445 98.3461 32.574 99.5168 35.1785H104.655L97.5593 47.2382L83.367 45.5829L86.548 42.9818L82.6329 36.0061M93.6442 51.4945L104.655 45.5829L112.73 55.9873C113.6 59.8081 112.665 61.4458 110.039 64.0271M110.039 64.0271C108.372 70.2682 107.069 74.2288 102.698 78.6878H93.6442V82.9442L85.3245 71.8304L92.176 60.953V64.0271H101.107M110.039 64.0271H101.107M93.6442 52.4404L101.107 64.0271M66.8133 64.0271L69.664 58.1155L74.5579 59.7707L68.4406 47.7111L54.0036 47.2382L57.674 51.4945L53.0248 55.9873V59.7707C55.3199 65.5578 57.38 69.3699 60.7897 73.7221M66.8133 64.0271L63.5467 69.7022L60.7897 73.7221M66.8133 64.0271H82.6329V78.6878H65.0148C63.3878 76.8886 62.0033 75.2711 60.7897 73.7221" stroke="#DAD7CD"/>
</svg>
