<svg width="41" height="46" viewBox="0 0 41 46" fill="none" xmlns="http://www.w3.org/2000/svg">
<path d="M26.2741 26.7024H24.975L24.5145 26.1978C25.5423 24.841 26.2934 23.2427 26.7141 21.5175C27.1349 19.7922 27.2149 17.9826 26.9484 16.2181C26.1755 11.0227 22.3603 6.87387 17.7557 6.23846C16.137 6.00572 14.4928 6.19692 12.949 6.79741C11.4052 7.39791 10.0028 8.39179 8.84899 9.703C7.69521 11.0142 6.82065 12.608 6.29226 14.3624C5.76386 16.1168 5.59562 17.9853 5.80041 19.825C6.35953 25.0578 10.0103 29.3935 14.5819 30.2719C16.1346 30.5748 17.7269 30.4838 19.245 30.0057C20.7631 29.5275 22.1695 28.6739 23.3634 27.506L23.8074 28.0293V29.5057L30.7964 37.4483C31.4707 38.2145 32.5725 38.2145 33.2467 37.4483C33.9209 36.6821 33.9209 35.4299 33.2467 34.6637L26.2741 26.7024ZM16.4073 26.7024C12.3125 26.7024 9.00714 22.946 9.00714 18.2926C9.00714 13.6391 12.3125 9.88272 16.4073 9.88272C20.502 9.88272 23.8074 13.6391 23.8074 18.2926C23.8074 22.946 20.502 26.7024 16.4073 26.7024Z" fill="black"/>
</svg>
